<svg width="107" height="48" viewBox="0 0 107 48" fill="none" xmlns="http://www.w3.org/2000/svg">
<mask id="mask0_132_471" style="mask-type:luminance" maskUnits="userSpaceOnUse" x="-1" y="0" width="108" height="48">
<path d="M106.325 0.34922H-0.00878906V47.2275H106.325V0.34922Z" fill="white"/>
</mask>
<g mask="url(#mask0_132_471)">
<path d="M5.48269 11.3789C5.92127 10.5647 6.55423 9.87054 7.32573 9.35772L20.2735 0.34922L7.00695 22.2064C7.00695 22.2064 5.84779 20.2546 5.39572 19.267C4.83238 18.0253 4.54826 16.676 4.56327 15.3134C4.57829 13.9508 4.89211 12.6079 5.48269 11.3789ZM0.138968 26.4566C0.285156 28.5468 0.877869 30.5817 1.87742 32.4251C2.87697 34.2687 4.26028 35.878 5.93473 37.1455L20.2561 47.0953C20.2561 47.0953 11.2958 34.2294 3.73814 21.4269C2.973 20.0743 2.45862 18.5954 2.21964 17.0612C2.11385 16.3664 2.11385 15.6597 2.21964 14.965C2.02258 15.3288 1.64007 16.0737 1.64007 16.0737C0.87375 17.6309 0.351851 19.296 0.092602 21.0111C-0.0566192 22.8239 -0.0411007 24.6465 0.138968 26.4566ZM36.6523 28.1889C36.1885 27.2015 35.041 25.2496 35.041 25.2496L21.7978 47.0953L34.7454 38.0925C35.5169 37.5797 36.1499 36.8857 36.5886 36.0715C37.1791 34.8423 37.4928 33.4995 37.508 32.137C37.523 30.7744 37.2389 29.4249 36.6755 28.1832L36.6523 28.1889ZM41.909 20.9937C41.7628 18.9036 41.1701 16.8685 40.1706 15.0251C39.171 13.1817 37.7877 11.5723 36.1132 10.3048L21.815 0.34922C21.815 0.34922 30.7695 13.2152 38.3331 26.0176C39.0961 27.3707 39.6085 28.8495 39.8457 30.3833C39.9515 31.0781 39.9515 31.7848 39.8457 32.4796C40.0428 32.1157 40.4253 31.3708 40.4253 31.3708C41.1916 29.8136 41.7136 28.1485 41.9727 26.4334C42.1239 24.6207 42.1103 22.7982 41.9323 20.988L41.909 20.9937Z" fill="white"/>
<path d="M66.1313 34.0787H52.5737V12.5907H66.1313V16.6434H55.6351L56.9471 15.4189V21.3084H65.1108V25.157H56.9471V31.2506L55.6351 30.026H66.1313V34.0787Z" fill="white"/>
<path d="M74.0802 34.0787H69.736V12.5907H74.0802L84.8096 28.8015H83.4976V12.5907H87.8127V34.0787H83.4976L72.739 17.8971H74.0802V34.0787Z" fill="white"/>
<path d="M90.6569 18.7427C90.6569 17.4598 90.9873 16.3324 91.6482 15.3606C92.3285 14.3693 93.2518 13.5918 94.418 13.0281C95.6037 12.4644 96.9546 12.1826 98.4707 12.1826C99.9868 12.1826 101.289 12.4547 102.378 12.9989C103.486 13.5237 104.341 14.2721 104.943 15.2439C105.565 16.2158 105.876 17.3723 105.876 18.7135H101.532C101.513 17.8971 101.221 17.2557 100.657 16.7892C100.113 16.3227 99.3648 16.0895 98.4124 16.0895C97.3822 16.0895 96.5561 16.313 95.9341 16.76C95.3316 17.2071 95.0303 17.8194 95.0303 18.5969C95.0303 19.2966 95.2149 19.8409 95.5843 20.2296C95.973 20.5989 96.5658 20.871 97.3628 21.046L100.657 21.7457C102.543 22.1345 103.942 22.8051 104.856 23.7575C105.769 24.7099 106.226 26.0219 106.226 27.6935C106.226 29.0542 105.896 30.2496 105.235 31.2797C104.574 32.2905 103.631 33.0777 102.407 33.6414C101.202 34.1856 99.7827 34.4577 98.15 34.4577C96.595 34.4577 95.2247 34.1953 94.039 33.6705C92.8728 33.1263 91.9689 32.3682 91.3275 31.3964C90.686 30.4051 90.3556 29.2583 90.3362 27.9559H94.7096C94.7096 28.7723 95.0109 29.4137 95.6134 29.8802C96.2354 30.3273 97.0907 30.5508 98.1791 30.5508C99.3065 30.5508 100.201 30.337 100.861 29.9094C101.522 29.4623 101.853 28.8695 101.853 28.1309C101.853 27.47 101.688 26.9646 101.357 26.6148C101.027 26.2455 100.473 25.9831 99.6953 25.8276L96.3715 25.1278C94.486 24.7391 93.0574 24.0102 92.0855 22.9411C91.1331 21.8721 90.6569 20.4726 90.6569 18.7427Z" fill="white"/>
</g>
</svg>
